<?xml version="1.0" standalone="no"?>
<!DOCTYPE svg PUBLIC "-//W3C//DTD SVG 20010904//EN"
 "http://www.w3.org/TR/2001/REC-SVG-20010904/DTD/svg10.dtd">
<svg version="1.0" xmlns="http://www.w3.org/2000/svg"
 width="2000.000000pt" height="2000.000000pt" viewBox="0 0 2000.000000 2000.000000"
 preserveAspectRatio="xMidYMid meet">
<metadata>
Created by potrace 1.16, written by Peter Selinger 2001-2019
</metadata>
<g transform="translate(0.000000,2000.000000) scale(0.100000,-0.100000)"
fill="#000000" stroke="none">
<path d="M16752 16940 c-390 -102 -582 -522 -406 -887 50 -104 169 -225 271
-276 198 -97 432 -88 619 24 73 45 181 159 222 236 67 127 90 302 56 443 -78
335 -430 547 -762 460z"/>
<path d="M1895 16768 c-3 -7 -4 -213 -3 -458 l3 -445 260 1 c288 0 339 8 421
65 123 84 111 295 -22 375 l-52 30 34 23 c19 14 45 46 60 77 55 112 15 257
-86 314 -45 25 -48 25 -327 28 -229 3 -284 1 -288 -10z m459 -224 c20 -19 21
-87 2 -103 -8 -7 -54 -12 -112 -13 l-99 -1 -3 66 -3 67 100 0 c77 0 103 -4
115 -16z m27 -333 c29 -23 31 -81 4 -111 -16 -18 -30 -20 -132 -20 l-113 0 0
75 0 75 109 0 c91 0 112 -3 132 -19z"/>
<path d="M2775 16768 c-3 -7 -4 -213 -3 -458 l3 -445 320 0 320 0 0 110 c0 91
-3 110 -15 111 -8 1 -97 2 -197 3 l-183 1 0 68 0 67 153 -1 c83 -1 158 1 165
4 8 3 12 33 12 103 l0 99 -165 0 -165 0 0 60 0 60 183 0 c100 0 188 4 195 9
10 6 13 34 11 109 -2 92 -4 101 -23 106 -12 3 -153 6 -314 6 -225 0 -294 -3
-297 -12z"/>
<path d="M3535 16768 c-3 -7 -4 -213 -3 -458 l3 -445 120 0 120 0 3 138 3 137
47 0 48 0 84 -135 c45 -74 91 -137 101 -140 23 -8 269 -3 265 5 -2 3 -46 77
-100 166 l-97 160 36 38 c149 159 102 417 -93 513 -57 28 -58 28 -295 31 -185
2 -239 0 -242 -10z m443 -243 c26 -31 29 -82 7 -124 -19 -37 -31 -41 -126 -41
l-79 0 0 94 c0 54 4 96 10 98 5 2 45 2 87 1 70 -2 80 -4 101 -28z"/>
<path d="M4423 16773 c-10 -4 -13 -103 -13 -453 0 -419 1 -449 18 -454 9 -3
157 -4 327 -3 l310 2 3 107 c3 106 2 108 -21 113 -13 4 -106 5 -206 3 l-181
-3 0 348 0 348 -112 -2 c-62 -1 -119 -4 -125 -6z"/>
<path d="M5160 16320 l0 -458 123 1 122 2 0 455 0 455 -122 2 -123 1 0 -458z"/>
<path d="M5566 16765 c-9 -23 -6 -878 3 -893 6 -10 37 -12 127 -10 l119 3 5
217 5 216 170 -210 c94 -115 177 -213 185 -218 8 -4 56 -7 105 -6 l90 1 0 455
0 455 -121 3 c-103 2 -122 1 -127 -13 -4 -8 -5 -110 -4 -225 1 -116 0 -210 -3
-210 -3 0 -86 101 -184 225 l-177 225 -94 0 c-73 0 -94 -3 -99 -15z"/>
<path d="M6957 16760 c-108 -34 -173 -110 -184 -214 -8 -76 3 -121 39 -162 43
-48 84 -68 250 -115 163 -47 186 -57 222 -99 30 -36 34 -85 11 -130 -54 -104
-301 -100 -456 7 -28 19 -52 33 -53 31 -23 -32 -46 -84 -42 -94 8 -20 80 -62
155 -92 59 -23 80 -26 201 -26 121 -1 140 1 185 22 119 55 170 157 143 286 -8
36 -21 59 -53 91 -48 48 -106 73 -263 111 -122 30 -171 52 -201 90 -39 50 -18
139 43 179 14 9 54 22 89 28 80 13 176 -7 249 -54 47 -31 49 -31 63 -13 8 11
19 32 26 47 10 24 9 30 -7 42 -32 25 -119 64 -165 74 -69 16 -187 12 -252 -9z"/>
<path d="M7585 16768 c-3 -7 -4 -213 -2 -458 l2 -445 55 0 55 0 3 140 3 141
79 79 c44 43 81 77 83 74 2 -2 75 -101 164 -220 l160 -215 62 0 c33 0 61 3 61
6 0 3 -85 117 -190 254 l-189 249 46 51 c25 28 106 117 179 198 74 81 131 149
127 151 -7 4 -87 2 -114 -2 -4 -1 -110 -112 -235 -247 l-229 -245 -5 248 -5
248 -53 3 c-36 2 -54 -1 -57 -10z"/>
<path d="M8340 16770 c-5 -3 67 -132 160 -287 l170 -282 2 -168 3 -168 45 -1
c25 0 51 1 58 4 9 3 12 46 12 169 l0 165 166 276 c91 151 166 280 167 286 2
11 -84 17 -110 8 -7 -2 -71 -105 -144 -228 -72 -123 -134 -226 -138 -228 -3
-2 -66 99 -140 225 -73 126 -136 230 -140 230 -24 5 -103 4 -111 -1z"/>
<path d="M9256 16749 c-8 -41 -8 -817 0 -858 l7 -32 308 1 309 2 0 54 0 54
-255 0 -255 0 -2 403 -3 402 -51 3 c-50 3 -51 2 -58 -29z"/>
<path d="M10018 16773 c-17 -4 -18 -34 -18 -453 l0 -449 33 -4 c17 -3 44 -5
60 -5 l27 0 0 457 0 457 -42 0 c-24 1 -51 -1 -60 -3z"/>
<path d="M10336 16772 c-3 -5 -4 -211 -3 -458 l2 -449 55 0 55 0 5 343 5 343
275 -343 275 -343 45 0 45 0 0 455 0 455 -48 1 c-26 0 -52 -5 -57 -11 -6 -7
-9 -140 -7 -347 1 -185 -1 -334 -4 -332 -5 3 -533 665 -545 682 -5 8 -93 12
-98 4z"/>
<path d="M11320 16320 l0 -459 308 2 307 2 3 53 3 52 -250 0 -251 0 0 155 0
155 210 0 210 0 0 50 0 50 -210 0 -210 0 0 145 0 145 239 0 c276 0 256 -9 242
103 -1 4 -136 7 -301 7 l-300 -2 0 -458z"/>
<path d="M13000 14680 l0 -40 460 0 460 0 0 40 0 40 -460 0 -460 0 0 -40z"/>
<path d="M11560 13400 l0 -1200 -120 0 -120 0 0 -80 0 -80 40 0 40 0 0 -82 0
-83 -57 -30 c-120 -62 -234 -210 -279 -360 -26 -87 -24 -239 4 -330 49 -159
158 -288 310 -364 60 -31 62 -32 62 -71 l0 -40 -60 0 -60 0 0 -80 0 -80 60 0
60 0 0 -720 0 -720 -60 0 -60 0 0 -80 0 -80 60 0 60 0 0 -940 0 -940 -60 0
-60 0 0 -80 0 -80 60 0 60 0 0 -1540 0 -1540 -200 0 -200 0 0 1089 0 1089 75
198 c41 109 75 201 75 206 0 4 -70 8 -155 8 l-155 0 0 275 0 275 60 0 c45 0
60 4 60 14 0 8 -25 97 -55 198 -31 100 -58 191 -61 201 -5 16 -28 17 -305 17
l-299 0 0 115 0 115 140 0 140 0 0 140 0 140 -140 0 -140 0 0 40 0 40 -40 0
-40 0 0 -295 0 -295 -270 0 c-148 0 -270 -2 -270 -5 0 -3 -27 -94 -60 -202
-33 -109 -60 -204 -60 -210 0 -9 17 -13 50 -13 l50 0 0 -70 0 -71 -151 3 -151
3 -18 70 c-41 160 -114 203 -175 102 l-24 -42 -4 2150 c-3 1994 -4 2156 -21
2235 -40 197 -88 308 -172 399 -67 73 -133 112 -239 143 -75 21 -98 23 -345
23 -296 0 -335 -6 -466 -70 -195 -95 -303 -331 -319 -695 -3 -63 -40 -1024
-82 -2135 -42 -1111 -77 -2022 -79 -2024 -2 -2 -22 13 -45 34 -50 45 -136 84
-201 92 -42 5 -49 9 -54 32 -22 102 -62 217 -102 295 -157 305 -437 513 -767
571 -558 97 -1095 -252 -1229 -799 l-23 -91 -48 -7 c-125 -18 -257 -119 -307
-235 -15 -34 -29 -53 -40 -53 -17 0 -18 126 -21 2218 -3 2058 -4 2223 -21
2302 -40 198 -88 308 -172 399 -67 73 -133 112 -239 143 -75 21 -98 23 -345
23 -296 0 -335 -6 -466 -70 -91 -44 -170 -127 -218 -228 -74 -154 -94 -276
-107 -632 -32 -916 -160 -4114 -165 -4132 -6 -23 -8 -23 -195 -23 l-189 0 0
70 0 70 50 0 c47 0 50 1 45 23 -4 12 -32 108 -64 212 l-58 190 -306 3 -307 2
0 115 0 115 180 0 180 0 0 140 0 140 -180 0 -180 0 0 40 0 40 -40 0 -40 0 0
-295 0 -295 -263 0 -263 0 -58 -197 c-33 -109 -61 -206 -64 -215 -4 -15 3 -18
42 -18 l46 0 0 -275 0 -275 -140 0 c-77 0 -140 -2 -140 -4 0 -2 36 -97 79
-212 66 -173 83 -210 100 -212 l21 -3 0 -1080 0 -1079 -540 0 -540 0 0 -240 0
-240 10000 0 10000 0 0 240 0 240 -480 0 -480 0 0 1380 0 1380 202 2 201 3 38
150 c21 83 38 153 38 158 1 4 -107 7 -239 7 l-240 0 0 220 0 220 241 0 c224 0
240 1 235 18 -3 9 -17 64 -31 122 -14 58 -31 122 -36 143 l-10 37 -59 0 -60 0
0 320 0 320 60 0 59 0 10 38 c5 20 22 84 36 142 14 58 28 113 31 123 5 16 -31
17 -655 17 l-661 0 0 180 0 180 -105 0 -105 0 82 133 c141 229 129 193 126
368 l-3 154 -204 -305 c-113 -168 -229 -340 -258 -384 l-53 -78 0 -124 0 -124
-145 0 -145 0 0 518 0 518 -55 54 -55 54 0 -222 c0 -169 -3 -224 -12 -227 -7
-2 -55 -6 -105 -8 l-93 -4 0 118 0 119 -115 0 -115 0 0 -121 c0 -121 0 -121
-22 -115 -13 3 -58 6 -100 6 l-78 0 0 233 -1 232 -59 -65 -60 -65 0 -512 0
-513 -120 0 -120 0 0 125 0 124 -161 238 c-88 131 -204 303 -257 383 l-97 145
-3 -156 -2 -157 85 -155 c47 -86 88 -163 91 -172 5 -13 -7 -15 -85 -15 l-91 0
0 -180 0 -180 -661 0 c-624 0 -660 -1 -655 -17 3 -10 17 -65 31 -123 14 -58
31 -122 36 -142 l10 -38 79 0 80 0 0 -320 0 -320 -80 0 -79 0 -10 -37 c-5 -21
-22 -85 -36 -143 -14 -58 -28 -113 -31 -122 -5 -17 11 -18 235 -18 l241 0 0
-220 0 -220 -241 0 c-224 0 -240 -1 -235 -17 3 -10 17 -65 31 -123 14 -58 31
-122 36 -142 l10 -38 199 0 200 0 0 -1380 0 -1380 -160 0 -160 0 0 940 0 940
41 0 c35 0 40 3 35 18 -4 9 -39 95 -79 189 l-72 173 -382 0 -383 0 0 1770 0
1770 40 0 40 0 0 100 0 100 -120 0 -120 0 0 40 0 40 160 0 160 0 0 120 0 120
-160 0 -160 0 0 260 0 260 160 0 160 0 0 60 0 60 -78 0 -79 0 -12 168 c-10
140 -46 447 -67 583 l-6 36 45 5 c25 3 60 16 77 28 37 26 69 90 70 138 0 17 3
32 8 32 4 0 95 11 202 25 107 14 196 25 198 25 1 0 2 18 2 40 l0 40 -218 0
c-183 0 -224 -3 -252 -16 -41 -21 -128 -14 -223 17 l-67 22 0 108 0 109 -100
0 -100 0 0 -109 0 -110 -57 -21 c-81 -31 -152 -36 -191 -16 -26 13 -68 16
-252 16 l-220 0 0 -40 c0 -36 2 -39 33 -45 41 -7 348 -45 363 -45 6 0 14 -21
18 -46 12 -88 79 -154 156 -154 16 0 30 -4 30 -8 0 -5 -11 -98 -25 -208 -29
-236 -45 -413 -45 -506 l0 -68 -105 0 -105 0 0 -60 0 -60 200 0 200 0 0 -260
0 -260 -200 0 -200 0 0 -120 0 -120 200 0 200 0 0 -40 0 -40 -160 0 -160 0 0
-100 0 -100 60 0 60 0 0 -1770 0 -1770 -397 -2 -396 -3 -77 -185 -77 -185 54
-3 53 -3 0 -939 0 -940 -200 0 -200 0 0 1540 0 1540 40 0 40 0 0 80 0 80 -40
0 -40 0 0 940 0 940 40 0 40 0 0 80 0 80 -40 0 -40 0 0 720 0 720 40 0 40 0 0
80 0 80 -40 0 -40 0 0 49 0 50 59 31 c86 46 192 159 236 252 85 179 85 361 -2
537 -46 92 -150 202 -235 246 l-58 30 0 83 0 82 40 0 40 0 0 80 0 80 -120 0
-120 0 0 1200 0 1200 -80 0 -80 0 0 -1200z m4280 -8220 l0 -1380 -240 0 -240
0 0 1380 0 1380 240 0 240 0 0 -1380z m920 0 l0 -1380 -240 0 -240 0 0 1380 0
1380 240 0 240 0 0 -1380z m920 0 l0 -1380 -240 0 -240 0 0 1380 0 1380 240 0
240 0 0 -1380z m920 0 l0 -1380 -240 0 -240 0 0 1380 0 1380 240 0 240 0 0
-1380z m-15786 1198 c-2 -35 -7 -134 -10 -220 l-6 -158 -109 0 -109 0 19 48
c49 124 121 322 121 331 0 7 -47 11 -140 11 l-140 0 0 25 0 25 189 0 189 0 -4
-62z m4560 0 c-2 -35 -7 -134 -10 -220 l-6 -158 -1399 0 -1399 0 0 220 0 220
1409 0 1409 0 -4 -62z m2266 37 l0 -25 -145 0 c-80 0 -145 -4 -145 -8 0 -4 29
-82 64 -172 35 -91 66 -175 70 -187 l7 -23 -185 0 -186 0 0 220 0 220 260 0
260 0 0 -25z m2960 -1675 l0 -940 -60 0 -60 0 0 940 0 940 60 0 60 0 0 -940z
m400 0 l0 -940 -100 0 -100 0 0 940 0 940 100 0 100 0 0 -940z m1080 0 l0
-940 -120 0 -120 0 0 940 0 940 120 0 120 0 0 -940z m280 0 l0 -940 -40 0 -40
0 0 940 0 940 40 0 40 0 0 -940z m-8611 765 c16 -8 33 -27 40 -42 8 -21 11
-171 9 -557 l-3 -528 -33 -29 c-37 -33 -94 -39 -142 -14 -61 31 -60 24 -60
593 0 515 0 520 21 546 12 15 31 32 43 36 33 14 94 11 125 -5z m476 1 c18 -8
38 -23 44 -34 8 -14 11 -190 11 -549 0 -586 3 -560 -66 -589 -67 -28 -139 -10
-162 41 -9 19 -12 166 -12 553 0 571 -1 560 54 582 33 13 93 11 131 -4z m448
3 c14 -6 30 -22 36 -36 8 -16 11 -188 11 -557 0 -522 0 -534 -20 -559 -39 -49
-141 -48 -192 3 l-28 28 0 534 c0 412 3 538 13 551 32 42 126 61 180 36z
m2547 -4 c61 -32 60 -21 60 -625 0 -604 1 -593 -60 -625 -16 -8 -45 -15 -65
-15 l-35 0 0 640 0 640 35 0 c20 0 49 -7 65 -15z m-6460 -516 c-11 -282 -20
-535 -20 -562 0 -30 -4 -46 -10 -42 -6 4 -10 195 -10 541 l0 535 26 26 c14 14
27 23 30 20 3 -2 -4 -235 -16 -518z"/>
<path d="M13280 14560 l0 -40 460 0 460 0 0 40 0 40 -460 0 -460 0 0 -40z"/>
<path d="M7190 13986 c-73 -20 -137 -55 -192 -105 -57 -51 -123 -146 -133
-191 -6 -28 -10 -30 -53 -30 -26 0 -63 -5 -83 -10 -48 -13 -115 -75 -134 -122
l-15 -38 735 0 c404 0 735 2 735 5 0 17 -44 88 -67 110 -39 36 -103 58 -156
54 l-45 -4 -28 64 c-52 119 -176 228 -303 265 -65 19 -197 20 -261 2z"/>
<path d="M2040 13320 l0 -40 460 0 460 0 0 40 0 40 -460 0 -460 0 0 -40z"/>
<path d="M2320 13200 l0 -40 460 0 460 0 0 40 0 40 -460 0 -460 0 0 -40z"/>
<path d="M16748 12954 c-72 -17 -148 -54 -216 -107 l-53 -40 -112 -1 c-106 -1
-116 -3 -179 -34 -37 -18 -87 -54 -112 -79 l-46 -47 -73 -1 c-80 -1 -132 -22
-179 -72 -35 -36 -68 -109 -68 -150 l0 -33 1211 0 1211 0 -7 43 c-4 23 -19 64
-34 91 -42 80 -148 134 -235 123 -37 -5 -42 -3 -79 38 -24 29 -65 58 -113 82
-64 31 -88 37 -158 41 -59 3 -99 -1 -140 -12 l-57 -17 -47 46 c-56 56 -182
119 -266 134 -79 14 -178 13 -248 -5z"/>
<path d="M9946 1480 c-27 -11 -60 -29 -74 -42 -35 -32 -62 -95 -62 -145 0 -38
3 -43 28 -50 15 -5 77 -8 137 -8 113 1 172 13 258 57 l37 18 -15 38 c-55 131
-177 184 -309 132z m49 -75 c14 -13 25 -33 25 -45 0 -29 -44 -70 -75 -70 -58
0 -87 79 -43 120 29 27 64 25 93 -5z"/>
<path d="M7232 1468 c-6 -6 -12 -37 -12 -67 0 -52 -1 -53 -18 -38 -24 22 -91
22 -121 1 -26 -19 -51 -71 -51 -108 0 -100 96 -170 161 -117 22 18 23 18 39
-2 11 -13 23 -18 34 -14 15 6 16 25 14 179 -3 145 -5 173 -18 176 -9 1 -21 -3
-28 -10z m-37 -153 c47 -46 22 -144 -37 -145 -58 0 -81 110 -32 149 34 27 40
26 69 -4z"/>
<path d="M8946 1465 c-3 -9 -6 -39 -6 -66 0 -50 0 -50 -22 -35 -33 23 -99 21
-127 -5 -62 -58 -52 -187 18 -223 38 -20 58 -20 95 -1 26 14 31 14 47 -1 10
-9 25 -14 34 -10 13 5 15 29 13 178 -3 168 -4 173 -24 176 -13 2 -24 -4 -28
-13z m-20 -167 c27 -52 -4 -128 -52 -128 -29 0 -55 36 -56 76 -1 89 71 123
108 52z"/>
<path d="M9150 1461 c-5 -11 -10 -83 -10 -161 0 -78 5 -150 10 -161 13 -23 36
-25 48 -3 8 15 12 15 40 0 44 -23 76 -20 111 10 89 75 48 234 -60 234 -25 0
-50 -7 -61 -17 -17 -15 -18 -14 -18 31 0 53 -14 86 -35 86 -8 0 -19 -9 -25
-19z m154 -142 c51 -40 26 -149 -34 -149 -58 0 -82 98 -35 145 29 30 35 31 69
4z"/>
<path d="M10458 1469 c-10 -5 -21 -27 -24 -49 -5 -30 -11 -40 -28 -42 -29 -4
-29 -42 1 -46 21 -3 22 -9 25 -99 3 -80 6 -98 21 -107 32 -20 47 16 47 115 0
83 1 88 22 91 33 4 35 36 4 44 -19 4 -26 13 -26 30 0 20 5 24 30 24 34 0 52
26 29 41 -19 12 -80 11 -101 -2z"/>
<path d="M11680 1461 c-16 -32 -13 -303 4 -327 22 -29 50 -7 54 41 3 33 20 65
36 65 2 0 19 -25 36 -56 36 -62 54 -74 77 -51 15 14 12 22 -26 85 l-42 70 31
31 c34 34 35 54 3 59 -14 2 -36 -13 -67 -45 l-46 -48 0 86 c0 84 -8 109 -37
109 -7 0 -17 -9 -23 -19z"/>
<path d="M7354 1346 c-30 -30 -34 -40 -34 -87 0 -36 7 -65 20 -86 34 -57 135
-69 194 -22 55 43 20 74 -39 34 -51 -34 -98 -20 -107 30 -3 18 4 20 82 25 80
5 85 6 88 28 5 36 -18 81 -49 97 -15 8 -49 15 -75 15 -39 0 -51 -5 -80 -34z"/>
<path d="M7609 1362 c-28 -24 -31 -79 -4 -99 11 -7 44 -21 73 -30 60 -19 75
-39 46 -60 -25 -19 -64 -8 -91 25 -20 25 -23 26 -38 11 -53 -52 63 -110 154
-78 36 13 51 35 51 78 0 36 -23 54 -90 71 -58 15 -74 28 -59 46 17 20 53 17
74 -6 31 -35 73 -22 60 19 -13 42 -133 57 -176 23z"/>
<path d="M7983 1368 c-27 -13 -53 -66 -53 -107 0 -43 23 -95 51 -115 30 -20
88 -21 117 0 21 14 22 14 22 -10 0 -33 -33 -66 -64 -66 -14 0 -38 11 -54 25
-33 27 -62 25 -62 -5 0 -36 47 -60 117 -60 58 0 68 3 94 29 l29 29 0 146 0
146 -24 0 c-13 0 -27 -7 -30 -16 -5 -14 -8 -14 -28 0 -25 18 -82 20 -115 4z
m112 -53 c47 -46 24 -135 -35 -135 -41 0 -60 24 -60 74 0 43 13 70 40 79 26 9
30 8 55 -18z"/>
<path d="M8230 1255 c0 -103 3 -127 15 -131 31 -12 45 15 45 90 0 85 16 116
60 116 35 0 39 -11 42 -119 2 -59 7 -76 21 -85 30 -18 47 17 47 93 0 82 -15
138 -40 151 -29 15 -91 12 -112 -6 -16 -16 -18 -16 -24 0 -3 9 -17 16 -30 16
l-24 0 0 -125z"/>
<path d="M8524 1346 c-30 -30 -34 -40 -34 -85 0 -29 7 -66 16 -82 27 -53 114
-75 174 -44 32 16 55 50 45 65 -9 15 -21 12 -61 -15 -50 -34 -98 -20 -106 30
-3 18 4 20 82 25 72 4 85 8 88 23 6 31 -8 68 -35 93 -21 19 -37 24 -80 24 -49
0 -59 -4 -89 -34z"/>
<path d="M9404 1365 c-4 -8 14 -66 39 -128 36 -91 43 -116 34 -134 -6 -13 -15
-23 -21 -24 -62 -5 -72 -10 -63 -34 9 -23 99 -21 120 3 26 29 130 313 119 324
-25 25 -47 2 -77 -80 -16 -45 -33 -82 -36 -82 -4 0 -20 37 -35 83 -24 67 -33
83 -52 85 -13 2 -25 -3 -28 -13z"/>
<path d="M10566 1364 c-3 -9 -6 -62 -6 -119 0 -81 3 -105 16 -116 11 -9 20
-10 32 -2 13 8 18 31 22 97 6 97 14 109 67 100 25 -5 34 -2 39 10 16 41 -60
63 -98 29 -17 -15 -18 -15 -18 0 0 22 -46 23 -54 1z"/>
<path d="M10777 1359 c-52 -40 -60 -138 -16 -193 53 -68 209 -50 209 24 0 26
-27 26 -54 1 -34 -31 -60 -34 -89 -10 -15 11 -27 29 -27 40 0 17 8 19 84 19
75 0 85 2 91 19 10 31 -5 69 -37 96 -39 33 -122 35 -161 4z"/>
<path d="M11048 1360 c-82 -64 -51 -217 49 -236 69 -13 143 21 143 66 0 25
-32 27 -51 4 -40 -48 -118 -29 -119 29 0 15 10 17 79 17 95 0 109 10 91 64
-17 53 -52 76 -115 76 -37 0 -60 -6 -77 -20z"/>
<path d="M11276 1364 c-3 -9 -6 -80 -6 -159 0 -79 3 -150 6 -159 3 -9 17 -16
30 -16 23 0 24 3 24 67 0 65 0 66 19 49 11 -10 37 -20 59 -23 33 -4 44 -1 71
23 84 75 45 234 -57 234 -21 0 -47 -7 -58 -15 -25 -19 -34 -19 -34 0 0 20 -46
20 -54 -1z m159 -49 c47 -46 22 -144 -37 -145 -58 0 -81 110 -32 149 34 27 40
26 69 -4z"/>
<path d="M11565 1368 c-3 -8 -4 -66 -3 -129 l3 -114 25 0 25 0 0 125 c0 122
-1 125 -23 128 -12 2 -24 -3 -27 -10z"/>
<path d="M12088 1351 c-27 -24 -32 -36 -35 -87 -5 -76 18 -118 76 -135 73 -22
161 15 161 67 0 39 -28 41 -60 5 -17 -18 -39 -31 -53 -31 -51 0 -81 74 -53
129 21 40 67 43 106 6 17 -16 33 -23 43 -19 26 10 20 40 -14 68 -25 21 -41 26
-85 26 -45 0 -59 -5 -86 -29z"/>
<path d="M12375 1368 c-52 -30 -73 -91 -55 -157 12 -46 47 -78 96 -87 46 -8
78 1 115 34 60 54 48 171 -21 207 -34 18 -107 19 -135 3z m96 -38 c17 0 40
-68 33 -98 -22 -92 -124 -77 -124 18 0 46 39 96 66 86 9 -3 20 -6 25 -6z"/>
<path d="M12604 1367 c-2 -7 -3 -65 -2 -128 l3 -114 25 0 c24 0 25 3 32 88 7
95 17 117 54 117 28 0 33 -15 36 -119 2 -59 7 -76 21 -85 31 -19 47 17 47 105
0 83 11 103 52 97 22 -3 23 -8 28 -97 4 -73 9 -96 22 -104 12 -8 21 -7 32 2
13 11 16 34 16 106 0 78 -3 96 -21 119 -24 31 -81 36 -117 10 -21 -15 -25 -15
-41 0 -22 20 -80 21 -108 1 -19 -13 -22 -13 -27 0 -7 19 -45 20 -52 2z"/>
<path d="M10220 1264 c-78 -40 -180 -58 -297 -51 l-104 6 22 -38 c74 -131 342
-111 412 31 10 21 17 46 15 56 -3 18 -5 18 -48 -4z"/>
</g>
</svg>
