<?xml version="1.0" standalone="no"?>
<!DOCTYPE svg PUBLIC "-//W3C//DTD SVG 20010904//EN"
 "http://www.w3.org/TR/2001/REC-SVG-20010904/DTD/svg10.dtd">
<svg version="1.0" xmlns="http://www.w3.org/2000/svg"
 width="2000.000000pt" height="2000.000000pt" viewBox="0 0 2000.000000 2000.000000"
 preserveAspectRatio="xMidYMid meet">
<metadata>
Created by potrace 1.16, written by Peter Selinger 2001-2019
</metadata>
<g transform="translate(0.000000,2000.000000) scale(0.100000,-0.100000)"
fill="#000000" stroke="none">
<path d="M7676 17675 c-3 -9 -6 -89 -6 -178 0 -89 -3 -253 -7 -364 l-6 -201
-29 -6 c-62 -12 -61 -97 2 -111 l31 -7 -6 -381 c-3 -210 -8 -487 -11 -615 l-6
-233 -24 -9 c-45 -17 -40 -90 6 -105 21 -7 21 -9 15 -448 -4 -243 -8 -448 -11
-454 -2 -9 -24 -13 -64 -13 -36 0 -60 -4 -60 -11 0 -6 -9 -94 -20 -195 l-21
-185 -59 -59 c-140 -136 -177 -341 -93 -518 32 -70 130 -170 196 -201 l47 -23
0 -73 c0 -68 -1 -73 -24 -79 -44 -11 -43 -71 1 -82 22 -6 24 -11 19 -37 -3
-16 -6 -35 -6 -43 0 -7 -9 -15 -19 -19 -34 -11 -37 -46 -7 -72 l27 -23 -20
-808 c-11 -444 -23 -874 -26 -957 -2 -82 -7 -251 -10 -375 -5 -213 -9 -380
-20 -775 -3 -93 -10 -377 -15 -630 -6 -253 -13 -489 -15 -525 -2 -36 -4 -86
-4 -112 l-1 -48 -85 0 -85 0 0 685 0 686 25 49 c14 27 25 52 25 55 0 3 -21 5
-46 5 -44 0 -45 1 -42 28 l3 27 -157 3 -158 3 0 53 0 54 39 -5 c25 -3 56 1 85
12 30 11 60 16 86 12 l41 -5 -3 81 c-3 79 -4 82 -30 91 -21 8 -42 5 -90 -12
-77 -27 -93 -27 -118 -2 -11 11 -27 20 -35 20 -13 0 -15 -23 -15 -150 l0 -150
-120 0 -120 0 0 -30 c0 -29 -2 -30 -46 -30 -25 0 -44 -3 -42 -7 46 -91 48
-103 48 -249 l0 -144 -90 0 -90 0 0 45 c0 43 -1 45 -29 45 -28 0 -30 -3 -33
-42 l-3 -43 -82 -3 -83 -3 0 46 c0 45 0 45 -35 45 -35 0 -35 0 -35 -45 l0 -45
-75 0 -75 0 0 45 c0 45 0 45 -35 45 -35 0 -35 0 -35 -45 l0 -46 -77 3 -78 3
-3 43 c-3 39 -5 42 -33 42 -23 0 -29 -4 -29 -22 0 -59 -9 -68 -66 -68 l-54 0
0 105 0 105 -60 0 -60 0 0 34 c0 19 -4 38 -10 41 -5 3 -10 37 -10 76 0 39 4
69 10 69 18 0 11 18 -10 25 -11 3 -20 13 -20 20 0 32 -24 65 -47 65 -14 0 -23
-6 -23 -15 0 -8 -4 -15 -10 -15 -5 0 -10 -11 -10 -25 0 -14 -3 -25 -7 -25 -5
0 -14 -4 -22 -9 -12 -8 -12 -12 2 -26 19 -19 22 -80 6 -122 -10 -27 -11 -26
-32 37 -55 161 -175 285 -332 341 -82 30 -229 37 -312 15 -205 -52 -361 -216
-407 -426 -9 -44 -14 -55 -15 -34 -1 16 -8 39 -16 50 -18 24 -20 125 -2 143
10 10 8 16 -11 28 -12 9 -22 22 -22 29 0 8 -8 29 -18 48 l-18 34 -22 -32 c-12
-18 -22 -39 -22 -48 0 -9 -10 -22 -22 -31 -19 -12 -21 -18 -10 -28 15 -16 16
-113 0 -142 -6 -12 -11 -33 -12 -47 -1 -23 -5 -25 -58 -28 l-58 -3 0 -104 0
-105 -60 0 -60 0 0 45 c0 45 0 45 -35 45 -35 0 -35 0 -35 -45 l0 -45 -75 0
-75 0 0 45 c0 45 0 45 -35 45 -35 0 -35 0 -35 -45 l0 -45 -80 0 -80 0 0 45 c0
43 -1 45 -30 45 -17 0 -30 -5 -31 -12 0 -7 -2 -26 -2 -43 l-2 -30 -82 -3 -83
-3 0 46 c0 45 0 45 -35 45 -35 0 -35 0 -35 -45 l0 -45 -90 0 -90 0 0 140 c0
136 1 142 30 200 l30 60 -45 0 c-43 0 -45 1 -45 30 l0 30 -145 0 -145 0 0 53
0 53 36 -4 c19 -2 55 3 80 13 25 10 62 15 84 13 l40 -4 0 83 0 82 -32 6 c-21
4 -55 -1 -93 -15 -63 -22 -115 -19 -115 6 0 8 -9 14 -20 14 -19 0 -20 -7 -20
-150 l0 -150 -135 0 -135 0 0 -30 c0 -29 -2 -30 -45 -30 l-44 0 29 -62 29 -62
1 -678 0 -678 -720 0 -720 0 0 -170 0 -170 9170 0 9170 0 0 170 0 170 -812 2
-813 3 -3 348 c-2 303 0 348 13 353 8 4 15 12 15 20 0 9 12 14 35 14 l35 0 0
54 0 55 -37 3 -38 3 -3 102 -3 103 -230 0 c-213 0 -230 1 -228 18 3 34 -2 41
-51 77 -45 33 -50 41 -50 75 0 34 -6 44 -45 77 l-45 37 0 328 c0 212 4 328 10
328 6 0 10 11 10 25 0 14 -4 25 -10 25 -6 0 -10 110 -10 310 0 200 4 310 10
310 6 0 10 11 10 25 0 14 -4 25 -10 25 -6 0 -10 122 -10 345 0 223 4 345 10
345 6 0 10 11 10 25 0 14 -4 25 -10 25 -6 0 -10 108 -10 305 0 197 4 305 10
305 6 0 10 11 10 25 0 16 -6 25 -15 25 -20 0 -19 6 10 110 32 114 36 275 8
284 -10 2 -57 13 -105 22 l-88 18 0 58 c0 54 2 58 23 58 13 0 32 7 43 15 10 8
29 15 42 15 48 0 40 50 -29 170 -35 60 -38 71 -27 89 10 17 10 27 -1 53 -26
66 -26 71 -3 59 11 -6 23 -11 26 -11 11 0 6 29 -10 64 -16 32 -16 35 4 63 11
16 33 35 49 43 15 8 44 27 64 42 20 15 42 28 48 28 6 0 11 4 11 8 0 5 14 22
31 40 l31 32 -23 9 c-14 5 -67 5 -129 -1 -94 -8 -107 -11 -127 -34 l-23 -25 0
114 c0 90 3 117 15 127 20 16 19 54 -1 74 -8 9 -13 20 -10 24 3 5 -1 18 -9 28
-13 18 -14 17 -21 -11 -4 -17 -13 -39 -20 -50 -19 -27 -17 -42 6 -65 18 -18
19 -32 17 -156 -1 -81 -6 -139 -12 -141 -6 -2 -9 15 -7 43 3 33 -1 50 -13 64
-17 19 -17 21 0 46 17 26 17 27 -1 19 -24 -10 -44 -10 -69 0 -19 8 -19 8 -2
-12 21 -25 22 -49 1 -57 -14 -5 -16 -16 -11 -56 6 -46 5 -49 -12 -38 -10 6
-26 29 -37 52 -16 34 -25 42 -50 44 -27 3 -33 8 -37 35 -3 23 1 38 14 53 37
40 17 94 -34 94 -42 0 -57 -15 -57 -57 0 -22 6 -36 20 -43 14 -8 20 -21 20
-46 l0 -36 -52 8 c-55 7 -98 7 -106 -1 -6 -6 58 -85 70 -85 5 0 22 -11 36 -25
15 -14 43 -33 62 -44 46 -24 100 -95 100 -131 0 -15 -9 -49 -21 -75 -19 -42
-19 -48 -5 -64 14 -16 12 -23 -22 -82 -78 -134 -88 -179 -39 -179 13 0 28 -5
34 -11 6 -6 26 -14 45 -18 33 -7 33 -8 33 -61 0 -61 14 -52 -137 -85 l-78 -17
0 -87 c0 -66 7 -111 30 -191 16 -58 30 -106 30 -107 0 -2 -9 -3 -20 -3 -15 0
-20 -7 -20 -25 0 -16 6 -25 15 -25 13 0 15 -41 15 -305 0 -264 -2 -305 -15
-305 -9 0 -15 -9 -15 -25 0 -16 6 -25 15 -25 23 0 23 -678 0 -686 -8 -4 -15
-17 -15 -30 0 -15 6 -24 15 -24 13 0 15 -41 15 -310 0 -269 -2 -310 -15 -310
-9 0 -15 -9 -15 -24 0 -13 7 -26 15 -30 13 -5 15 -50 15 -325 l0 -320 -45 -38
c-39 -32 -45 -43 -45 -75 0 -39 -14 -58 -77 -101 -24 -16 -33 -30 -33 -49 l0
-28 -230 0 -230 0 0 -105 0 -105 -40 0 -40 0 0 -55 0 -55 35 0 c24 0 35 -5 35
-15 0 -8 7 -15 15 -15 13 0 15 -46 15 -355 l0 -355 -110 0 -110 0 -1 633 -1
632 -114 98 -114 97 -494 0 -495 0 -4 538 c-3 590 -1 567 -68 692 -55 103
-187 216 -291 250 -30 9 -38 17 -38 36 0 21 5 24 35 24 l35 0 0 50 0 50 -35 0
-36 0 3 110 c2 77 6 111 15 115 18 6 16 35 -2 35 -8 0 -15 5 -15 10 0 6 -16
20 -35 32 -20 11 -43 34 -51 50 -14 27 -14 32 0 47 24 26 20 51 -7 51 -20 0
-23 4 -19 33 2 22 -2 38 -12 46 -11 9 -16 30 -16 68 0 49 3 56 35 84 21 19 35
40 35 54 0 22 -2 23 -30 12 -25 -10 -33 -9 -40 3 -7 12 -3 16 21 21 47 10 62
30 20 27 -29 -3 -36 1 -41 21 -7 31 -30 39 -37 13 -3 -14 -11 -18 -24 -15 -20
6 -27 -11 -9 -22 6 -3 10 -25 10 -48 1 -23 7 -59 15 -81 13 -37 12 -39 -12
-62 -22 -20 -24 -28 -15 -47 8 -16 11 -17 11 -6 1 9 8 22 16 29 13 10 15 9 15
-9 0 -13 -7 -29 -15 -37 -8 -9 -15 -31 -15 -50 0 -27 -4 -34 -20 -34 -15 0
-20 -7 -20 -24 0 -14 5 -28 10 -31 21 -13 8 -38 -41 -86 -28 -27 -55 -49 -60
-49 -16 0 -10 -29 8 -39 14 -8 15 -13 5 -35 -7 -16 -8 -28 -2 -31 6 -4 10 -40
10 -81 l0 -74 -40 0 -40 0 0 -49 0 -50 37 -3 c26 -2 39 -8 41 -19 2 -12 -21
-28 -84 -59 -154 -74 -271 -221 -304 -380 -7 -36 -11 -235 -13 -565 -2 -399
-5 -510 -14 -511 -7 -1 -231 -2 -497 -3 l-483 -1 -117 -101 -116 -101 0 -629
0 -629 -155 0 -155 0 0 475 c0 468 0 475 20 475 11 0 20 6 20 13 1 6 2 57 3
112 l2 100 43 3 42 3 0 51 c0 39 6 59 26 85 14 18 21 33 17 34 -4 0 -37 1 -73
2 -63 2 -65 3 -68 30 -2 19 -9 27 -23 27 -17 0 -19 8 -19 75 0 73 1 75 25 75
21 0 25 5 25 30 l0 30 -565 0 c-558 0 -565 0 -565 20 0 18 -20 26 -52 21 -5 0
-8 8 -8 19 0 18 -7 20 -65 20 -75 0 -81 10 -39 59 34 41 46 39 42 -6 -2 -22 2
-38 10 -40 9 -3 12 10 12 49 -1 48 -5 76 -25 159 -5 21 -3 27 13 31 16 5 21
16 23 57 5 58 -9 71 -48 46 -25 -17 -47 -59 -58 -109 -3 -16 -27 -49 -52 -73
-49 -48 -47 -38 -31 -148 3 -17 -4 -20 -41 -23 l-44 -3 7 48 c18 130 19 143 4
166 -16 24 -28 78 -30 139 -1 31 -4 37 -22 35 -26 -3 -38 -38 -29 -92 l6 -40
-22 19 c-16 15 -24 17 -33 8 -21 -21 -29 -13 -22 24 6 30 4 36 -15 41 -27 7
-27 33 -1 56 26 22 26 62 0 84 -29 25 -25 41 20 83 23 22 40 47 40 60 0 22 -1
22 -27 5 -16 -10 -34 -24 -40 -33 -12 -14 -13 -14 -13 1 0 22 -9 22 -26 0 -11
-15 -13 -16 -14 -2 0 20 -70 55 -70 35 0 -19 52 -84 73 -91 24 -9 21 -34 -8
-61 -32 -29 -32 -48 0 -80 30 -30 30 -30 2 -68 -12 -17 -29 -44 -37 -60 -15
-29 -15 -28 -18 42 -3 68 -4 72 -26 72 -21 0 -24 -5 -30 -72 -4 -40 -14 -83
-23 -97 -15 -24 -14 -89 4 -189 5 -33 5 -33 -28 -30 -29 3 -34 6 -32 28 10
106 10 104 -34 144 -29 26 -46 51 -53 80 -17 66 -27 84 -58 100 -34 18 -50 9
-47 -24 1 -14 3 -37 4 -52 1 -21 6 -28 20 -28 18 0 18 -3 9 -32 -6 -18 -11
-45 -11 -60 0 -16 -4 -28 -8 -28 -13 0 -2 -114 10 -118 12 -4 14 7 11 51 -2
26 0 28 19 18 18 -10 51 -59 51 -76 0 -3 -31 -5 -69 -5 -62 0 -69 -2 -74 -21
-4 -16 -11 -20 -27 -16 -16 4 -23 -1 -30 -19 l-10 -24 -560 0 -560 0 0 -30 c0
-25 4 -30 25 -30 24 0 25 -2 25 -75 0 -73 -1 -75 -25 -75 -21 0 -25 -5 -25
-31 0 -31 0 -31 -52 -28 -92 4 -93 4 -64 -34 20 -26 26 -46 26 -85 l0 -51 43
-3 42 -3 2 -100 c1 -55 2 -105 3 -111 0 -7 9 -14 20 -17 20 -5 20 -14 20 -476
l0 -471 -179 0 -178 0 -7 303 c-3 166 -9 365 -11 442 -3 77 -7 241 -10 365 -3
124 -7 302 -10 395 -7 254 -13 465 -40 1545 -13 542 -26 1031 -28 1087 -4 99
-3 102 20 112 32 14 29 61 -4 76 -18 8 -23 18 -23 50 0 32 5 42 23 50 16 7 22
18 22 40 0 22 -6 33 -22 40 -13 5 -23 19 -23 30 0 11 -3 43 -6 70 l-6 50 38
19 c113 53 200 153 236 269 16 54 20 87 16 161 -3 83 -8 102 -41 168 -25 51
-55 92 -94 129 l-57 54 -21 195 -20 195 -61 3 -61 3 -6 187 c-4 103 -7 306 -7
451 l0 264 25 23 c32 30 32 50 -4 83 l-29 27 -7 611 -8 611 22 7 c59 19 60
100 1 111 l-30 7 -1 316 c-1 174 -4 343 -8 376 -6 55 -8 60 -32 63 -17 2 -29
-3 -33 -13z m5694 -7057 c18 -30 20 -51 20 -215 l0 -183 -71 0 -70 0 3 188 c3
160 6 192 21 215 26 40 71 37 97 -5z m375 10 c37 -32 45 -81 44 -255 l-1 -153
-109 0 -109 0 0 170 c0 183 6 212 52 244 33 24 92 20 123 -6z m329 -11 c19
-26 21 -44 24 -213 l4 -184 -76 0 -76 0 0 163 c0 89 4 177 10 196 21 74 74 92
114 38z m-9084 -772 c140 -59 258 -109 261 -111 4 -2 4 -15 1 -29 l-4 -25
-529 0 -529 0 0 28 c0 26 11 31 263 138 144 62 267 111 272 109 6 -1 125 -51
265 -110z m9148 13 l-3 -33 -462 -3 -463 -2 0 35 0 35 466 0 465 0 -3 -32z
m-5248 -183 c0 -18 5 -25 20 -25 20 0 20 -7 20 -475 l0 -475 -155 0 -155 0 0
475 c0 468 0 475 20 475 15 0 20 7 20 25 l0 25 115 0 115 0 0 -25z m590 0 c0
-18 5 -25 20 -25 20 0 20 -7 20 -475 l0 -475 -155 0 -155 0 0 475 c0 468 0
475 20 475 15 0 20 7 20 25 l0 25 115 0 115 0 0 -25z m590 1 c0 -18 6 -25 23
-28 l22 -3 3 -472 3 -473 -161 0 -160 0 0 471 c1 459 1 471 20 476 13 3 20 14
20 29 0 24 1 24 115 24 l115 0 0 -24z m600 -1 c0 -18 5 -25 20 -25 20 0 20 -7
20 -475 l0 -475 -155 0 -155 0 0 475 c0 468 0 475 20 475 15 0 20 7 20 25 l0
25 115 0 115 0 0 -25z m590 0 c0 -18 5 -25 20 -25 20 0 20 -7 20 -475 l0 -475
-155 0 -155 0 0 475 c0 468 0 475 20 475 15 0 20 7 20 25 l0 25 115 0 115 0 0
-25z m-6904 -377 c-2 -161 -7 -312 -11 -335 l-7 -43 -58 0 -57 0 -7 77 c-3 42
-6 192 -6 335 l0 258 75 0 76 0 -5 -292z m230 10 c-2 -156 -7 -307 -11 -335
l-7 -53 -57 0 -58 0 -7 77 c-3 42 -6 192 -6 335 l0 258 75 0 75 0 -4 -282z
m224 24 c0 -143 -3 -293 -6 -335 l-7 -77 -57 0 -58 0 -7 48 c-9 57 -17 601 -9
613 3 5 36 9 75 9 l69 0 0 -258z m226 -49 c-2 -170 -5 -320 -5 -335 -1 -27 -2
-28 -60 -28 l-59 0 -7 43 c-4 23 -9 174 -11 335 l-5 292 76 0 76 0 -5 -307z
m230 15 c-2 -161 -7 -312 -11 -335 l-7 -43 -59 0 c-58 0 -59 1 -60 28 0 15 -3
165 -5 335 l-5 307 76 0 76 0 -5 -292z m8104 260 c18 -30 20 -51 20 -215 l0
-183 -70 0 -70 0 0 176 c0 111 4 183 11 197 34 66 78 76 109 25z m381 5 c11
-10 23 -33 28 -51 l10 -32 -111 0 -110 0 6 28 c4 15 21 40 38 56 27 25 37 28
76 23 24 -3 53 -13 63 -24z m323 -6 c19 -26 21 -44 24 -213 l4 -184 -77 0 -76
0 2 161 c1 89 5 177 9 196 17 75 74 94 114 40z m-11514 -19 c82 -42 85 -55 85
-343 l0 -250 -150 0 -150 0 -3 230 c-2 127 0 245 3 263 8 42 58 99 99 111 49
14 69 13 116 -11z m4450 0 c81 -41 85 -56 88 -340 l3 -247 -23 -6 c-13 -3 -81
-4 -153 -3 l-130 3 -3 242 c-3 271 1 292 59 336 57 42 97 46 159 15z m-3992
-122 l-3 -81 -62 -2 -63 -2 0 82 c0 80 1 83 32 108 l32 27 33 -26 34 -25 -3
-81z m197 105 c29 -29 30 -32 27 -109 l-3 -80 -62 2 -62 1 -3 79 c-3 78 -3 79
30 107 18 15 35 28 38 29 2 0 18 -13 35 -29z m220 0 c29 -29 30 -32 27 -111
l-4 -81 -61 3 -62 3 -3 74 c-3 72 -2 75 29 108 18 18 35 33 38 33 3 0 19 -13
36 -29z m253 -105 l-3 -81 -62 -1 -62 -2 -3 80 -3 81 34 28 34 28 34 -26 34
-26 -3 -81z m200 101 c19 -18 22 -30 22 -103 l0 -83 -62 2 -63 2 -3 80 c-3 79
-3 80 30 107 34 28 39 27 76 -5z m1739 1 c26 -29 31 -41 32 -92 2 -89 0 -93
-69 -94 l-59 -1 -3 77 c-3 73 -2 79 26 110 17 17 33 32 36 32 3 0 20 -15 37
-32z m251 -103 l-3 -80 -62 -3 -63 -3 0 85 c0 82 1 85 31 110 l30 26 35 -28
35 -27 -3 -80z m220 2 l3 -85 -63 2 -63 1 -3 80 c-3 80 -3 80 30 107 l33 27
30 -23 c29 -22 30 -27 33 -109z m194 104 c33 -29 33 -29 30 -110 l-4 -82 -61
3 -62 3 -2 79 c-1 76 0 79 30 107 18 15 33 29 34 29 1 0 17 -13 35 -29z m226
0 c33 -28 33 -29 30 -107 l-3 -79 -60 0 -60 0 -5 75 c-5 72 -4 76 24 108 17
17 32 32 35 32 4 -1 21 -14 39 -29z m9452 -96 c0 -8 7 -15 15 -15 13 0 15 -46
15 -355 l0 -355 -100 0 -100 0 0 343 c0 337 0 343 22 370 19 24 28 27 85 27
49 0 63 -3 63 -15z m330 0 c0 -8 7 -15 15 -15 13 0 15 -46 15 -355 l0 -355
-100 0 -100 0 0 350 c0 302 2 351 15 356 8 4 15 12 15 20 0 11 17 14 70 14 56
0 70 -3 70 -15z m330 0 c0 -8 7 -15 15 -15 13 0 15 -46 15 -355 l0 -355 -100
0 -100 0 0 350 c0 302 2 351 15 356 8 4 15 12 15 20 0 11 17 14 70 14 56 0 70
-3 70 -15z m330 0 c0 -8 7 -15 15 -15 13 0 15 -46 15 -355 l0 -356 -97 3 -98
3 -2 344 c-2 343 -2 344 20 367 18 20 32 24 85 24 48 0 62 -3 62 -15z m330 0
c0 -8 7 -15 15 -15 13 0 15 -46 15 -355 l0 -355 -100 0 -100 0 0 347 c1 343 1
346 23 369 18 20 32 24 85 24 48 0 62 -3 62 -15z m-5173 -182 l2 -163 -69 0
-70 0 0 158 c0 87 3 162 7 166 4 4 34 6 68 4 l60 -3 2 -162z m293 2 l0 -165
-65 0 -65 0 0 165 0 165 65 0 65 0 0 -165z m310 0 l0 -165 -65 0 -65 0 0 165
0 165 65 0 65 0 0 -165z m318 -2 l2 -163 -70 0 -70 0 0 158 c0 87 3 162 7 166
4 4 34 5 67 4 l61 -3 3 -162z m1402 2 l0 -165 -65 0 -65 0 0 165 0 165 65 0
65 0 0 -165z m317 -2 l2 -163 -69 0 -70 0 0 158 c0 87 3 162 7 166 4 4 34 6
68 4 l60 -3 2 -162z m310 0 l2 -163 -70 0 -69 0 0 165 0 166 68 -3 67 -3 2
-162z m293 2 l0 -165 -65 0 -65 0 0 165 0 165 65 0 65 0 0 -165z m-1571 35 l0
-120 -110 0 -109 0 0 120 0 120 109 0 110 0 0 -120z m-10794 -35 c24 -23 25
-28 25 -170 l0 -145 -65 0 -65 0 0 150 c0 141 1 150 22 170 29 27 54 25 83 -5z
m223 5 c21 -20 22 -29 22 -170 l0 -150 -65 0 -65 0 0 145 c0 142 1 147 25 170
29 30 54 32 83 5z m220 4 c21 -15 22 -21 22 -170 l0 -155 -62 3 -63 3 0 148
c0 144 1 149 24 168 28 23 49 24 79 3z m227 -9 c24 -23 25 -28 25 -170 l0
-145 -65 0 -65 0 0 150 c0 137 2 152 20 170 27 27 56 25 85 -5z m219 4 l26
-20 0 -150 0 -149 -65 0 -65 0 0 145 c0 142 1 147 25 170 29 30 45 31 79 4z
m1747 2 c23 -19 24 -24 24 -168 l0 -148 -62 -3 -63 -3 0 155 c0 149 1 155 22
170 30 21 51 20 79 -3z m224 -6 c24 -23 25 -28 25 -170 l0 -145 -65 0 -65 0 0
150 c0 141 1 150 22 170 29 27 54 25 83 -5z m225 5 c18 -18 20 -33 20 -170 l0
-150 -65 0 -65 0 0 145 c0 142 1 147 25 170 29 30 58 32 85 5z m218 4 c21 -15
22 -21 22 -170 l0 -155 -62 3 -63 3 0 148 c0 144 1 149 24 168 28 23 49 24 79
3z m227 -9 c24 -23 25 -28 25 -170 l0 -145 -65 0 -65 0 0 150 c0 137 2 152 20
170 27 27 56 25 85 -5z m7206 -222 c33 -20 64 -84 45 -95 -16 -11 -194 -10
-200 1 -11 18 18 73 48 92 38 23 69 24 107 2z m-354 -44 c8 -15 13 -70 13
-151 l0 -128 -70 0 -70 0 0 120 c0 133 13 184 52 199 28 11 57 -5 75 -40z
m697 8 c18 -25 21 -45 25 -158 l3 -130 -73 3 -74 3 -3 90 c-4 115 4 167 30
200 26 33 63 30 92 -8z m-1970 -23 c13 -5 16 -27 16 -135 l0 -129 -70 0 -70 0
0 128 c0 71 3 132 7 135 8 9 96 9 117 1z m304 -131 l3 -133 -66 0 -65 0 0 128
c0 71 3 132 7 136 4 4 32 6 63 4 l55 -3 3 -132z m312 3 l0 -136 -65 0 -65 0 0
128 c0 71 2 131 4 133 3 2 32 6 65 7 l61 3 0 -135z m298 129 c21 -5 22 -9 22
-135 l0 -130 -70 0 -70 0 0 128 c0 71 2 131 4 133 7 7 89 10 114 4z m1420
-132 l3 -133 -66 0 -65 0 0 128 c0 71 3 132 7 136 4 4 32 6 63 4 l55 -3 3
-132z m306 131 c13 -5 16 -27 16 -135 l0 -129 -70 0 -70 0 0 128 c0 71 3 132
7 135 8 9 96 9 117 1z m310 0 c13 -5 16 -27 16 -135 l0 -129 -70 0 -70 0 0
128 c0 71 3 132 7 135 8 9 96 9 117 1z m306 -128 l0 -136 -65 0 -65 0 0 128
c0 71 2 131 4 133 3 2 32 6 65 7 l61 3 0 -135z m-1572 -63 l3 -73 -111 0 -110
0 0 75 0 76 108 -3 107 -3 3 -72z"/>
<path d="M15470 16939 c0 -6 25 -105 55 -219 46 -175 55 -221 55 -294 l0 -86
-124 0 c-85 0 -154 -6 -222 -20 -54 -11 -100 -17 -102 -13 -2 5 -24 46 -50 93
-45 80 -50 85 -84 88 l-36 3 19 -87 c10 -49 19 -92 19 -96 0 -4 -457 -8 -1015
-8 l-1015 0 0 -25 0 -25 1015 0 c826 0 1015 -2 1015 -13 0 -7 -9 -52 -19 -101
l-19 -87 36 3 c34 3 39 8 84 88 26 47 48 88 50 92 2 3 53 -2 113 -13 63 -11
158 -19 223 -19 l112 0 0 -72 c0 -55 -13 -120 -57 -285 -31 -117 -53 -216 -49
-220 3 -4 30 1 59 10 51 17 53 18 88 94 l35 78 53 -3 52 -4 -3 38 c-3 34 -6
39 -30 42 -16 2 -28 5 -28 7 0 3 14 33 31 68 l32 63 53 -4 54 -4 0 36 c0 35
-1 36 -35 36 -19 0 -35 5 -35 10 0 6 11 33 25 60 l25 50 138 0 c149 0 225 15
257 50 22 25 15 44 -27 67 -27 15 -63 18 -194 21 l-161 4 -31 64 c-18 35 -32
66 -32 69 0 2 15 5 33 7 29 3 32 6 35 42 l3 39 -56 -5 -56 -5 -30 65 c-16 36
-29 66 -29 68 0 2 14 4 30 4 28 0 30 2 30 41 l0 41 -51 -4 -50 -3 -42 79 c-39
75 -45 80 -87 93 -55 16 -60 16 -60 2z"/>
<path d="M10002 4741 c-189 -65 -188 -292 2 -350 33 -10 88 -22 120 -26 108
-13 156 -44 156 -102 0 -119 -254 -135 -329 -20 l-16 25 -53 -27 -53 -27 32
-47 c56 -85 189 -129 325 -107 145 23 214 92 214 212 -1 115 -72 173 -248 203
-115 20 -137 28 -158 60 -14 22 -15 30 -3 56 31 77 194 81 276 7 21 -20 21
-20 67 7 52 31 51 41 -8 93 -69 60 -217 80 -324 43z"/>
<path d="M5620 4405 l0 -337 208 3 c198 4 210 5 256 29 59 30 86 64 97 121 11
63 -6 117 -51 160 l-38 36 31 31 c27 27 31 40 34 94 5 84 -22 133 -92 168 -47
24 -60 25 -247 28 l-198 4 0 -337z m365 211 c59 -25 74 -89 29 -125 -24 -19
-40 -21 -150 -21 l-124 0 0 80 0 80 105 0 c69 0 118 -5 140 -14z m9 -266 c42
-16 66 -47 66 -85 0 -29 -6 -39 -32 -55 -28 -17 -51 -20 -160 -20 l-128 0 0
85 0 85 114 0 c63 0 126 -4 140 -10z"/>
<path d="M6370 4405 l0 -335 250 0 250 0 0 60 0 60 -187 2 -188 3 0 75 0 75
183 3 182 2 0 55 0 55 -185 0 -186 0 3 78 3 77 188 3 187 2 0 60 0 60 -250 0
-250 0 0 -335z"/>
<path d="M7070 4405 l0 -335 60 0 60 0 0 110 0 110 64 0 63 0 97 -110 97 -110
76 0 77 0 -25 28 c-111 122 -181 203 -178 206 2 1 26 13 52 26 69 32 100 83
105 170 3 56 0 74 -22 117 -51 102 -112 123 -353 123 l-173 0 0 -335z m380
198 c64 -37 67 -126 6 -175 -17 -15 -43 -18 -143 -18 l-123 0 0 105 0 105 116
0 c90 0 122 -4 144 -17z"/>
<path d="M7810 4405 l0 -335 235 0 236 0 -3 58 -3 57 -172 3 -173 2 0 275 0
275 -60 0 -60 0 0 -335z"/>
<path d="M8460 4405 l0 -335 65 0 65 0 0 335 0 335 -65 0 -65 0 0 -335z"/>
<path d="M8810 4405 l0 -335 65 0 65 0 2 222 3 222 174 -222 c173 -221 174
-222 212 -222 l39 0 0 335 0 335 -65 0 -65 0 0 -206 0 -207 -162 206 -163 205
-52 1 -53 1 0 -335z"/>
<path d="M10600 4405 l0 -335 60 0 60 0 0 145 c0 80 3 145 8 145 4 0 68 -65
141 -145 l133 -145 80 0 80 0 -80 88 c-44 48 -104 110 -132 137 -28 28 -65 67
-81 87 l-30 37 148 158 148 158 -75 3 -75 3 -90 -98 c-49 -54 -109 -118 -132
-143 l-43 -45 0 143 0 142 -60 0 -60 0 0 -335z"/>
<path d="M11296 4713 c9 -16 68 -104 131 -198 l113 -170 0 -137 0 -138 60 0
60 0 0 136 0 136 136 197 135 196 -67 3 c-37 2 -72 1 -78 -1 -6 -3 -49 -64
-95 -136 -45 -72 -86 -131 -90 -131 -3 0 -43 61 -89 135 l-83 135 -76 0 -75 0
18 -27z"/>
<path d="M12090 4405 l0 -335 235 0 236 0 -3 58 -3 57 -172 3 -173 2 0 275 0
275 -60 0 -60 0 0 -335z"/>
<path d="M12740 4405 l0 -335 60 0 60 0 0 335 0 335 -60 0 -60 0 0 -335z"/>
<path d="M13090 4406 l0 -336 60 0 60 0 2 227 3 227 175 -225 176 -224 43 -3
42 -3 -3 333 -3 333 -62 3 -63 3 -2 -206 -3 -207 -161 204 -160 203 -52 3 -52
3 0 -335z"/>
<path d="M13860 4405 l0 -335 245 0 245 0 0 60 0 60 -185 0 -185 0 0 80 0 80
180 0 180 0 0 55 0 55 -180 0 -180 0 0 80 0 80 185 0 185 0 0 60 0 60 -245 0
-245 0 0 -335z"/>
<path d="M9958 1226 c-92 -33 -140 -91 -146 -175 -4 -50 -1 -59 14 -66 33 -13
187 -18 244 -7 62 12 157 45 184 65 17 13 17 15 -4 58 -26 51 -74 105 -112
125 -34 18 -131 17 -180 0z m37 -81 c14 -13 25 -33 25 -45 0 -29 -44 -70 -75
-70 -57 0 -85 74 -45 118 27 29 65 28 95 -3z"/>
<path d="M7216 1205 c-3 -9 -6 -39 -6 -66 0 -50 0 -50 -22 -35 -33 23 -99 21
-127 -5 -42 -40 -53 -110 -27 -174 25 -59 102 -83 147 -46 22 18 23 18 39 -2
11 -13 23 -18 34 -14 15 6 16 25 14 179 -3 168 -4 173 -24 176 -13 2 -24 -4
-28 -13z m-31 -150 c31 -30 33 -82 4 -119 -41 -52 -99 -18 -99 57 0 44 13 70
40 80 26 9 30 8 55 -18z"/>
<path d="M8947 1213 c-4 -3 -7 -33 -7 -65 0 -59 0 -59 -22 -44 -12 9 -42 16
-66 16 -35 0 -49 -6 -73 -29 -26 -27 -29 -36 -29 -96 0 -63 2 -69 35 -102 32
-32 40 -35 76 -30 22 3 49 13 60 23 18 16 19 16 19 0 0 -22 26 -31 45 -16 12
10 15 42 15 165 0 85 -3 160 -6 169 -6 16 -35 22 -47 9z m-43 -154 c21 -17 26
-29 26 -65 0 -76 -58 -110 -99 -58 -29 37 -27 89 4 119 29 30 35 31 69 4z"/>
<path d="M9146 1205 c-3 -9 -6 -85 -6 -170 0 -123 3 -155 15 -165 18 -15 45
-6 45 15 0 14 4 13 26 -4 42 -33 89 -28 131 14 35 35 35 36 31 106 -3 63 -7
74 -31 95 -33 28 -100 33 -134 9 -22 -15 -22 -15 -25 47 -3 55 -6 63 -24 66
-13 2 -24 -4 -28 -13z m159 -150 c31 -30 33 -82 4 -119 -23 -30 -45 -33 -77
-10 -18 12 -22 25 -22 64 0 41 4 52 26 69 34 27 40 26 69 -4z"/>
<path d="M10458 1209 c-10 -5 -21 -28 -24 -49 -5 -29 -11 -40 -24 -40 -10 0
-20 -6 -23 -14 -6 -16 11 -36 30 -36 10 0 13 -23 13 -94 0 -73 3 -96 16 -107
11 -9 20 -10 32 -2 14 8 18 29 20 106 3 90 4 96 25 99 30 4 30 42 0 46 -17 3
-23 10 -23 28 0 21 5 24 36 24 31 0 35 3 32 23 -3 19 -10 22 -48 24 -25 2 -53
-2 -62 -8z"/>
<path d="M11685 1198 c-3 -13 -4 -90 -3 -172 3 -131 5 -150 21 -160 24 -14 47
15 47 60 0 31 30 70 37 49 12 -37 71 -110 88 -110 33 0 29 38 -9 98 -20 31
-36 60 -36 65 0 5 11 19 25 32 33 31 33 60 1 60 -16 0 -38 -15 -65 -46 l-41
-47 0 77 c0 43 -5 86 -10 97 -15 26 -48 25 -55 -3z"/>
<path d="M7344 1086 c-30 -30 -34 -40 -34 -85 0 -29 7 -66 16 -82 27 -53 114
-75 174 -44 32 16 55 50 45 65 -9 15 -21 12 -61 -15 -24 -16 -45 -23 -58 -19
-25 7 -58 43 -53 58 2 6 40 13 88 16 79 5 84 6 87 28 5 32 -16 79 -42 97 -12
9 -43 15 -74 15 -48 0 -58 -4 -88 -34z"/>
<path d="M7599 1102 c-24 -20 -31 -74 -12 -93 6 -6 40 -21 75 -33 67 -23 84
-47 48 -66 -27 -14 -54 -5 -85 28 -20 21 -26 23 -39 13 -22 -18 -20 -34 7 -59
28 -26 74 -37 122 -28 49 9 75 38 75 81 0 40 -20 57 -90 75 -58 15 -74 28 -59
46 17 20 52 17 83 -7 15 -11 34 -18 42 -15 23 9 13 49 -16 63 -39 20 -124 16
-151 -5z"/>
<path d="M7835 1108 c-3 -8 -4 -66 -3 -129 l3 -114 25 0 25 0 0 125 c0 122 -1
125 -23 128 -12 2 -24 -3 -27 -10z"/>
<path d="M7967 1100 c-84 -66 -42 -230 60 -230 21 0 49 7 61 16 21 15 22 14
22 -15 0 -63 -71 -83 -122 -34 -26 25 -30 26 -45 11 -37 -38 19 -80 107 -80
109 0 130 34 130 207 0 125 -5 145 -36 145 -15 0 -24 -6 -24 -15 0 -19 -9 -19
-34 0 -28 21 -89 19 -119 -5z m117 -41 c50 -40 28 -139 -32 -139 -40 0 -62 27
-62 76 0 34 5 47 26 63 15 12 30 21 34 21 4 0 19 -9 34 -21z"/>
<path d="M8224 1107 c-2 -7 -3 -65 -2 -128 l3 -114 25 0 c24 0 25 2 30 86 6
99 18 121 64 117 l31 -3 5 -92 c5 -99 17 -126 48 -107 14 9 18 29 20 106 2 83
0 98 -18 121 -17 22 -30 27 -64 27 -23 0 -51 -7 -63 -15 -19 -13 -22 -13 -27
0 -7 19 -45 20 -52 2z"/>
<path d="M8520 1092 c-52 -52 -52 -147 -1 -196 38 -37 103 -45 155 -21 34 16
58 57 42 72 -6 6 -13 3 -78 -33 -40 -22 -87 5 -88 49 0 15 10 17 79 17 95 0
109 10 91 64 -17 53 -52 76 -117 76 -47 0 -59 -4 -83 -28z"/>
<path d="M9404 1105 c-4 -10 10 -60 31 -113 21 -54 40 -109 42 -123 6 -30 -19
-54 -56 -54 -36 0 -41 -32 -7 -45 37 -14 85 -1 103 27 26 40 122 295 116 310
-3 7 -16 13 -28 13 -20 0 -27 -11 -51 -82 -14 -46 -29 -87 -32 -92 -3 -5 -19
31 -37 80 -26 71 -36 90 -54 92 -13 2 -24 -3 -27 -13z"/>
<path d="M10566 1098 c-3 -13 -6 -64 -6 -114 0 -102 14 -138 47 -118 14 9 19
28 23 91 6 95 18 115 69 111 28 -2 36 1 39 16 2 10 -2 22 -10 27 -20 13 -72
11 -87 -3 -11 -10 -14 -10 -18 0 -8 22 -50 14 -57 -10z"/>
<path d="M10789 1105 c-52 -28 -70 -141 -31 -194 41 -57 149 -65 198 -16 47
48 17 70 -41 31 -47 -32 -60 -32 -90 -1 -45 44 -35 54 62 57 95 3 103 9 88 65
-11 46 -52 73 -109 73 -28 -1 -63 -7 -77 -15z"/>
<path d="M11047 1096 c-14 -13 -31 -42 -37 -65 -30 -111 59 -195 171 -162 40
12 76 52 64 71 -9 15 -20 13 -61 -15 -46 -31 -59 -31 -89 0 -45 44 -35 54 62
57 76 3 88 6 91 21 6 31 -8 68 -35 93 -37 35 -129 35 -166 0z"/>
<path d="M11287 1113 c-4 -3 -7 -82 -7 -174 0 -174 3 -187 43 -167 13 7 17 22
17 69 l0 60 26 -20 c47 -37 111 -23 145 31 16 26 19 45 16 91 -4 76 -40 117
-102 117 -22 0 -50 -7 -62 -15 -19 -13 -22 -13 -27 0 -5 15 -37 20 -49 8z
m143 -43 c24 -13 43 -70 34 -105 -10 -38 -48 -61 -80 -47 -49 23 -56 115 -11
147 25 18 32 18 57 5z"/>
<path d="M11566 1105 c-3 -9 -6 -60 -6 -114 0 -109 14 -145 47 -125 16 10 18
26 18 130 l0 119 -26 3 c-17 2 -29 -3 -33 -13z"/>
<path d="M12094 1086 c-30 -30 -34 -40 -34 -84 0 -68 13 -98 52 -122 73 -45
188 -5 188 65 0 30 -31 29 -60 -4 -60 -65 -133 -18 -116 74 12 64 73 79 113
29 18 -23 26 -27 40 -18 28 17 26 32 -5 64 -27 26 -37 30 -87 30 -51 0 -60 -3
-91 -34z"/>
<path d="M12382 1107 c-54 -31 -76 -116 -45 -177 39 -75 146 -91 206 -32 59
59 42 185 -29 212 -35 14 -104 12 -132 -3z m98 -37 c22 -12 41 -70 33 -102
-22 -91 -123 -70 -123 26 0 36 5 48 26 65 30 24 38 25 64 11z"/>
<path d="M12614 1107 c-2 -7 -3 -65 -2 -128 3 -110 4 -114 25 -117 31 -4 43
30 43 117 0 75 12 95 52 89 22 -3 23 -8 28 -97 4 -73 9 -96 22 -104 12 -8 21
-7 32 2 12 10 16 33 16 96 0 90 10 109 52 103 22 -3 23 -8 28 -97 4 -73 9 -96
22 -104 12 -8 21 -7 32 2 13 11 16 34 16 112 0 86 -3 102 -20 119 -25 25 -95
27 -121 4 -17 -15 -19 -15 -34 0 -21 20 -84 21 -112 1 -19 -13 -22 -13 -27 0
-7 19 -45 20 -52 2z"/>
<path d="M10220 1004 c-78 -40 -180 -58 -298 -51 l-103 6 24 -42 c35 -58 84
-82 172 -82 39 0 89 6 113 13 75 23 149 107 140 159 -3 19 -4 19 -48 -3z"/>
</g>
</svg>
