<?xml version="1.0" standalone="no"?>
<!DOCTYPE svg PUBLIC "-//W3C//DTD SVG 20010904//EN"
 "http://www.w3.org/TR/2001/REC-SVG-20010904/DTD/svg10.dtd">
<svg version="1.0" xmlns="http://www.w3.org/2000/svg"
 width="2000.000000pt" height="2000.000000pt" viewBox="0 0 2000.000000 2000.000000"
 preserveAspectRatio="xMidYMid meet">
<metadata>
Created by potrace 1.16, written by Peter Selinger 2001-2019
</metadata>
<g transform="translate(0.000000,2000.000000) scale(0.100000,-0.100000)"
fill="#000000" stroke="none">
<path d="M6680 17879 l0 -410 218 3 c206 3 219 4 262 27 101 53 134 108 128
220 -4 92 -28 133 -96 163 l-45 20 29 13 c62 27 94 84 94 169 0 75 -33 134
-90 163 -67 34 -135 43 -326 43 l-174 0 0 -411z m359 255 c69 -28 77 -110 15
-151 -21 -13 -48 -18 -113 -18 l-86 0 -3 79 c-2 44 -1 85 2 93 8 19 135 17
185 -3z m-15 -314 c56 -12 89 -49 89 -97 0 -85 -44 -113 -178 -113 l-85 0 0
103 c0 57 3 107 7 110 9 10 121 8 167 -3z"/>
<path d="M8040 17880 l0 -410 235 0 235 0 0 70 0 70 -150 0 -150 0 0 105 0
105 140 0 140 0 0 70 0 69 -137 3 -138 3 0 90 0 90 148 3 147 3 0 69 0 70
-235 0 -235 0 0 -410z"/>
<path d="M9270 17881 l0 -411 85 0 85 0 0 156 0 155 52 -3 53 -3 94 -152 95
-153 93 0 c51 0 93 2 93 4 0 2 -52 81 -116 176 -64 94 -114 173 -112 174 1 1
24 17 49 35 69 49 94 99 94 191 -1 117 -41 177 -147 217 -32 12 -90 17 -230
21 l-188 4 0 -411z m348 243 c48 -28 61 -90 31 -145 -16 -32 -68 -51 -138 -53
l-66 -1 -3 99 c-1 55 0 106 3 114 8 21 131 11 173 -14z"/>
<path d="M10620 17880 l0 -410 250 0 250 0 0 70 0 70 -165 0 -165 0 0 340 0
340 -85 0 -85 0 0 -410z"/>
<path d="M11850 17880 l0 -410 85 0 85 0 0 410 0 410 -85 0 -85 0 0 -410z"/>
<path d="M12820 17880 l0 -410 76 0 76 0 -4 310 c-2 171 -3 310 -2 310 1 0 82
-139 180 -310 l178 -310 113 0 113 0 0 410 0 410 -81 0 -82 0 5 -307 c5 -263
4 -304 -8 -288 -8 10 -89 148 -181 307 l-167 288 -108 0 -108 0 0 -410z"/>
<path d="M1931 3434 c10 -12 -95 -14 -765 -14 l-776 0 0 -1515 0 -1515 9610 0
9610 0 0 1515 0 1515 -4625 0 c-4393 0 -4624 1 -4634 18 -9 16 -10 16 -16 0
-7 -17 -222 -18 -4191 -18 -2419 0 -4184 4 -4184 9 0 5 -9 11 -21 14 -16 4
-18 3 -8 -9z m8108 -2073 c8 -5 12 -18 9 -29 -5 -17 0 -22 23 -27 43 -10 35
-25 -13 -26 l-43 -1 50 -8 c66 -10 106 -31 145 -77 18 -21 27 -29 22 -17 -6
11 -18 26 -27 34 -12 10 -13 16 -4 27 10 11 15 10 34 -7 l22 -20 11 25 c12 26
42 35 42 12 0 -7 -9 -21 -21 -30 -13 -12 -18 -24 -14 -35 16 -39 17 -52 3 -52
-8 0 -20 6 -27 13 -9 8 -8 1 3 -20 9 -18 16 -37 16 -43 0 -17 -96 -58 -179
-76 -53 -12 -99 -15 -160 -11 -119 8 -121 9 -122 71 -1 28 -4 41 -6 29 -8 -40
-33 -27 -33 16 0 33 -4 40 -25 45 -30 8 -34 36 -5 36 11 0 20 -7 20 -15 0 -22
19 -18 39 7 26 31 45 15 26 -22 -8 -16 -15 -33 -15 -37 1 -4 10 9 21 30 20 38
91 97 117 97 11 0 12 3 3 14 -10 12 -8 17 8 25 11 6 27 11 35 11 13 0 14 3 4
19 -9 15 -9 23 1 35 15 18 21 19 40 7z m-2770 -125 c8 -9 11 -65 9 -176 -3
-140 -5 -164 -20 -174 -13 -8 -22 -6 -37 8 -18 17 -21 17 -43 2 -28 -20 -61
-20 -98 -1 -45 23 -63 67 -58 138 4 52 9 64 36 88 37 33 93 39 130 13 22 -15
22 -15 22 38 0 69 29 100 59 64z m1729 -168 c2 -174 2 -177 -20 -183 -15 -5
-25 -2 -34 9 -11 16 -15 16 -43 2 -16 -9 -41 -16 -54 -16 -49 0 -107 72 -107
132 0 107 84 167 170 123 l30 -16 0 59 c0 65 5 74 35 70 19 -3 20 -10 23 -180z
m202 163 c5 -11 10 -40 10 -66 l0 -45 25 16 c36 24 103 13 132 -20 48 -56 38
-163 -18 -211 -35 -28 -71 -32 -113 -10 -26 14 -30 14 -41 -1 -8 -11 -19 -14
-33 -10 -21 7 -22 12 -22 175 0 167 5 191 37 191 7 0 17 -9 23 -19z m1365 5
c17 -12 17 -16 6 -30 -8 -9 -21 -16 -30 -14 -41 7 -56 -36 -16 -46 34 -9 34
-43 0 -52 -23 -6 -24 -9 -27 -101 -2 -77 -6 -98 -20 -106 -12 -8 -21 -7 -32 2
-12 11 -16 34 -16 105 0 84 -2 92 -22 101 -32 15 -33 33 -4 46 17 8 26 20 26
36 0 57 87 94 135 59z m1173 2 c7 -7 12 -45 12 -97 l1 -86 42 48 c27 30 50 47
65 47 37 0 38 -28 2 -65 l-33 -34 43 -67 c34 -52 41 -70 33 -82 -19 -31 -46
-19 -80 33 -18 27 -34 54 -36 60 -8 23 -36 -19 -39 -57 -4 -48 -27 -70 -52
-49 -13 11 -16 40 -16 175 0 160 5 186 35 186 6 0 16 -5 23 -12z m-4240 -102
c36 -19 54 -54 50 -97 l-3 -34 -82 -3 c-69 -2 -83 -6 -83 -19 0 -24 30 -53 54
-53 11 0 37 12 57 26 40 27 59 25 59 -6 0 -46 -93 -81 -160 -61 -105 31 -117
198 -19 248 32 17 94 16 127 -1z m253 -3 c22 -13 29 -24 27 -43 -4 -32 -31
-37 -56 -10 -13 15 -29 20 -48 18 -50 -5 -34 -30 36 -54 62 -22 90 -44 90 -70
0 -59 -62 -100 -138 -91 -50 5 -94 41 -90 72 4 30 36 30 63 1 27 -29 66 -34
86 -10 11 14 10 18 -6 30 -10 8 -26 14 -34 14 -32 1 -99 39 -106 60 -9 29 11
75 38 88 34 17 106 14 138 -5z m139 -2 c13 -25 13 -191 0 -226 -7 -20 -16 -26
-33 -23 -21 3 -22 7 -25 122 -1 66 0 126 2 133 8 20 44 16 56 -6z m197 4 c18
-13 22 -13 33 0 16 20 46 19 54 -1 3 -9 6 -69 6 -135 0 -183 -22 -215 -144
-207 -72 4 -109 27 -104 62 4 28 40 32 63 6 25 -27 90 -28 105 -1 5 11 10 29
10 41 0 20 -1 20 -22 6 -37 -26 -95 -20 -128 12 -77 78 -33 232 67 232 21 0
48 -7 60 -15z m190 0 c5 -14 8 -14 29 0 36 23 91 19 119 -10 23 -22 25 -31 25
-129 0 -97 -2 -105 -20 -111 -39 -12 -50 11 -50 101 0 62 -4 87 -16 98 -19 20
-24 20 -52 0 -19 -13 -22 -24 -22 -93 0 -88 -13 -118 -48 -107 -21 7 -22 13
-22 130 0 67 3 126 7 129 12 13 44 7 50 -8z m387 5 c50 -19 88 -119 50 -134
-9 -3 -49 -6 -90 -6 -81 0 -93 -11 -54 -50 27 -27 56 -25 97 6 31 24 37 25 50
11 21 -20 4 -50 -41 -71 -58 -27 -128 -14 -170 33 -24 27 -33 110 -16 152 24
58 106 85 174 59z m822 -84 c17 -49 33 -85 36 -80 3 5 16 41 28 79 12 39 27
76 33 83 13 16 46 15 53 -2 7 -18 -100 -302 -123 -328 -13 -15 -28 -18 -67
-16 -44 3 -51 6 -54 26 -3 19 1 22 31 22 28 0 37 5 46 28 10 24 6 41 -34 140
-37 92 -43 117 -34 128 7 8 22 14 33 12 17 -2 27 -22 52 -92z m1139 84 c4 -7
12 -7 25 0 30 16 65 12 85 -10 26 -28 4 -53 -40 -44 -46 8 -58 -12 -63 -111
-4 -72 -7 -85 -24 -91 -39 -12 -48 11 -48 126 0 60 3 115 6 124 7 18 49 22 59
6z m322 -25 c29 -29 34 -40 31 -72 l-3 -38 -87 -3 c-77 -2 -86 -5 -81 -20 20
-56 64 -66 112 -26 35 29 64 26 59 -7 -9 -60 -135 -88 -195 -43 -64 47 -68
151 -8 211 29 29 39 33 85 33 46 0 56 -4 87 -35z m270 0 c29 -29 34 -40 31
-72 l-3 -38 -87 -3 c-77 -2 -86 -5 -81 -20 20 -56 64 -66 112 -26 53 44 86 8
37 -41 -49 -49 -157 -41 -199 16 -27 37 -33 108 -13 146 26 51 62 73 118 73
44 0 54 -4 85 -35z m119 20 c5 -13 9 -13 34 0 49 25 88 19 126 -19 31 -31 34
-40 34 -90 0 -68 -19 -110 -60 -131 -40 -21 -72 -19 -103 5 l-26 21 -3 -63
c-3 -60 -4 -63 -30 -66 -28 -3 -28 -3 -29 55 -1 138 2 287 7 295 9 14 44 9 50
-7z m289 -114 c0 -105 -3 -125 -17 -134 -12 -8 -21 -7 -32 2 -13 11 -16 35
-16 121 0 129 4 142 39 138 l26 -3 0 -124z m632 110 c36 -22 50 -55 33 -76
-17 -21 -26 -19 -54 11 -62 68 -140 0 -102 -90 13 -31 20 -36 48 -36 25 0 39
7 58 30 30 36 60 33 60 -7 0 -87 -165 -110 -224 -30 -45 61 -21 171 45 204 36
19 100 16 136 -6z m263 4 c40 -21 60 -63 60 -126 0 -44 -4 -55 -33 -84 -62
-62 -158 -55 -204 14 -41 61 -24 157 35 193 34 22 104 23 142 3z m146 0 c5
-13 8 -13 27 0 28 19 77 19 105 -1 20 -14 24 -14 44 0 31 22 80 20 112 -5 25
-20 26 -24 26 -124 0 -81 -3 -105 -16 -116 -11 -9 -20 -10 -32 -2 -13 8 -18
28 -20 84 -3 104 -8 119 -37 119 -34 0 -39 -14 -45 -109 -4 -64 -9 -86 -22
-94 -12 -8 -21 -7 -32 2 -12 10 -16 33 -16 97 0 63 -4 86 -16 99 -14 14 -19
14 -38 2 -18 -12 -22 -27 -26 -100 -5 -92 -15 -113 -49 -102 -20 6 -21 13 -21
129 0 67 3 126 7 129 12 12 44 7 49 -8z m-2396 -112 c0 -67 -72 -134 -170
-159 -113 -29 -205 -2 -257 75 -32 47 -29 54 14 46 109 -20 278 1 361 45 49
25 52 25 52 -7z"/>
<path d="M12415 1075 c-47 -46 -24 -135 35 -135 37 0 60 32 60 82 0 40 -27 78
-55 78 -9 0 -27 -11 -40 -25z"/>
</g>
</svg>
